<?xml version="1.0" encoding="UTF-8" standalone="no"?>
<!DOCTYPE svg PUBLIC "-//W3C//DTD SVG 1.1//EN" "http://www.w3.org/Graphics/SVG/1.1/DTD/svg11.dtd">
<svg width="100%" height="100%" viewBox="0 0 2800 1400" version="1.1" xmlns="http://www.w3.org/2000/svg" xmlns:xlink="http://www.w3.org/1999/xlink" xml:space="preserve" xmlns:serif="http://www.serif.com/" style="fill-rule:evenodd;clip-rule:evenodd;stroke-linejoin:round;stroke-miterlimit:2;">
    <g transform="matrix(4.57667,0,0,4.8304,75.2162,-14.9852)">
        <path d="M525.906,59.769L525.906,236.267C525.906,240.3 522.45,243.575 518.193,243.575L60.736,243.575C56.479,243.575 53.023,240.3 53.023,236.267L53.023,59.769C53.023,55.735 56.479,52.461 60.736,52.461L518.193,52.461C522.45,52.461 525.906,55.735 525.906,59.769Z"/>
    </g>
    <g transform="matrix(4,0,0,4,62.5498,65.2639)">
        <text x="97.375px" y="85.106px" style="font-family:'Menlo-Regular', 'Menlo', monospace;font-size:15px;fill:white;">$ malwi-box run --review package.py</text>
        <text x="97.375px" y="127.106px" style="font-family:'Menlo-Regular', 'Menlo', monospace;font-size:15px;fill:rgb(255,84,43);">[malwi-box] Open (read): /home/user/.aws/credentials</text>
        <text x="97.375px" y="148.106px" style="font-family:'Menlo-Regular', 'Menlo', monospace;font-size:15px;fill:white;">Approve? [Y/n/i]: y</text>
        <text x="97.375px" y="190.106px" style="font-family:'Menlo-Regular', 'Menlo', monospace;font-size:15px;fill:rgb(255,84,43);">[malwi-box] DNS lookup: evil-c2.xyz:443</text>
        <text x="97.375px" y="211.106px" style="font-family:'Menlo-Regular', 'Menlo', monospace;font-size:15px;fill:white;">Approve? [Y/n/i]: n</text>
        <g transform="matrix(15,0,0,15,151.56,253.106)">
        </g>
        <text x="97.375px" y="253.106px" style="font-family:'Menlo-Regular', 'Menlo', monospace;font-size:15px;fill:rgb(236,219,0);">Denied</text>
    </g>
</svg>
